<?xml version="1.0" encoding="utf-8"?>
<!-- Generator: Adobe Illustrator 22.1.0, SVG Export Plug-In . SVG Version: 6.00 Build 0)  -->
<svg version="1.1" id="Layer_1" xmlns="http://www.w3.org/2000/svg" xmlns:xlink="http://www.w3.org/1999/xlink" x="0px" y="0px"
	 viewBox="0 0 276.7 276.7" style="enable-background:new 0 0 276.7 276.7;" xml:space="preserve">
<style type="text/css">
	.st0{fill:#FFFFFF;stroke:#000000;stroke-width:2.4852;stroke-miterlimit:10;}
</style>
<g>
	<path class="st0" d="M138.3,1.2C62.6,1.2,1.2,62.6,1.2,138.3s61.4,137.1,137.1,137.1S275.4,214,275.4,138.3S214,1.2,138.3,1.2z
		 M172.2,190.9H117c-1,0-2-0.5-2.5-1.5l-11.1-19.3l-10.9,19c-0.5,1-1.5,1.5-2.5,1.5H34.8c-2.3,0-3.7-2.5-2.5-4.5l56.9-98.6
		c1-2,4-2,5.3,0l9.1,16l9.2-16c1-2,4-2,5.2,0l56.7,98.9C175.9,188.4,174.4,190.9,172.2,190.9z M187.6,189.2c-1.2,2-4,2-5.2,0
		l-56.9-98.7c-1.2-2,0.3-4.5,2.5-4.5h113.8c2.5,0,3.7,2.5,2.7,4.5L187.6,189.2z"/>
	<path class="st0" d="M121.8,135.2l-18.2-31.7l-18.4,32c-0.5,1-0.5,2,0,3l18.2,31.6l18.4-31.9C122.3,137.2,122.3,136.2,121.8,135.2z
		"/>
</g>
</svg>
