<svg id="42d9e707-ba33-466d-8ebc-17a23873029b" data-name="Layer 1" xmlns="http://www.w3.org/2000/svg" viewBox="0 0 256 256"><defs><style>.f76b4b9d-ef46-4845-9a27-a0d9f22eab13{fill:none;stroke:#000;stroke-linecap:round;stroke-miterlimit:10;stroke-width:14px;}</style></defs><title>noise</title><polyline id="d168fdd5-3288-4d16-8c22-1e437108d40d" data-name="noise" class="f76b4b9d-ef46-4845-9a27-a0d9f22eab13" points="5 130.88 6.92 106.94 8.83 157.69 11.7 54.26 14.58 190.25 19.36 107.89 25.11 161.52 27.98 71.5 30.86 179.72 46.18 35.11 48.1 196 65.33 92.57 69.17 160.57 73.95 86.82 80.66 173.97 91.19 39.9 92.15 185.47 100.77 91.61 102.68 163.44 115.13 55.22 118.01 185.47 126.63 99.27 136.2 133.75 139.08 102.15 143.86 154.82 153.44 120.34 159.19 155.78 162.06 96.4 167.81 156.74 177.38 110.77 181.21 170.14 183.13 106.94 194.62 171.1 199.41 101.19 210.9 178.76 217.6 77.25 223.35 156.74 231.01 100.23 236.76 155.78 243.46 118.43 246.34 163.44 250.17 130.88"/></svg>